<svg width="43" height="44" viewBox="0 0 43 44" fill="none" xmlns="http://www.w3.org/2000/svg">
<g id="Frame" clip-path="url(#clip0_10_804)">
<g id="Group 16099">
<g id="Group 16087">
<path id="Ellipse 156" d="M21.5006 44C33.3751 44 43.0012 34.1503 43.0012 22C43.0012 9.84974 33.3751 0 21.5006 0C9.62615 0 0 9.84974 0 22C0 34.1503 9.62615 44 21.5006 44Z" fill="url(#paint0_radial_10_804)"/>
<path id="Ellipse 161" d="M21.5005 40.3332C31.3959 40.3332 39.4177 32.1252 39.4177 22.0001C39.4177 11.875 31.3959 3.66699 21.5005 3.66699C11.6052 3.66699 3.58337 11.875 3.58337 22.0001C3.58337 32.1252 11.6052 40.3332 21.5005 40.3332Z" fill="url(#paint1_linear_10_804)"/>
</g>
<g id="Group 16088">
<path id="Path 16939" d="M14.7844 15.3691L27.7453 28.6308" stroke="#E9E9E9" stroke-linecap="round"/>
<path id="Path 16940" d="M27.7464 15.3691L14.7844 28.6308" stroke="#E9E9E9" stroke-linecap="round"/>
</g>
</g>
</g>
<defs>
<radialGradient id="paint0_radial_10_804" cx="0" cy="0" r="1" gradientUnits="userSpaceOnUse" gradientTransform="translate(21.5006 22) scale(21.5006 22)">
<stop stop-color="#0C1113"/>
<stop offset="0.046" stop-color="#42555A"/>
<stop offset="1" stop-color="#050809"/>
</radialGradient>
<linearGradient id="paint1_linear_10_804" x1="21.5005" y1="3.66699" x2="21.5005" y2="40.3332" gradientUnits="userSpaceOnUse">
<stop stop-color="#DE2234"/>
<stop offset="1" stop-color="#BB0130"/>
</linearGradient>
<clipPath id="clip0_10_804">
<rect width="43" height="44" fill="white"/>
</clipPath>
</defs>
</svg>
