<svg width="79" height="82" viewBox="0 0 79 82" fill="none" xmlns="http://www.w3.org/2000/svg">
<g id="Group 16410">
<g id="Group 4873">
<g id="Group" filter="url(#filter0_d_10_220)">
<path id="Subtraction 951" d="M41.1884 72.2235L14.1884 55.2885L8.23438 13.1985C9.61171 12.1653 11.0875 11.2703 12.6404 10.5265C16.9287 8.43876 21.4775 6.93537 26.1654 6.05652L11.5164 12.8795L16.9084 47.9795L41.1414 70.8565L65.4734 47.9835L70.7914 12.8835L55.9484 6.15652C60.6555 7.06772 65.2323 8.5556 69.5754 10.5865C71.1722 11.3194 72.7008 12.1925 74.1434 13.1955L68.1884 55.2855L41.1884 72.2205V72.2235Z" fill="url(#paint0_linear_10_220)"/>
</g>
<g id="Group_2" filter="url(#filter1_d_10_220)">
<path id="Subtraction 952" d="M42.6844 69.3756L65.5014 47.9866L69.9964 19.5426C71.2354 20.1246 71.8844 20.5136 71.8904 20.5176L65.5014 52.7866L42.6844 69.3756ZM39.1374 69.1866L16.6134 52.7866L10.2244 20.5176L10.2324 20.5116C10.3984 20.4066 11.0244 20.0226 12.1104 19.4866L16.6104 47.9866L39.1394 69.1866H39.1374Z" fill="url(#paint1_linear_10_220)"/>
</g>
<g id="Union 239">
<path id="Vector" d="M41.1416 69.1072L64.2985 47.9648L69.404 13.5287L40.789 0.945552L12.9734 13.527L18.0791 47.965L41.1416 69.1072ZM41.1413 69.3783L17.8917 48.0645L12.7534 13.407L40.7878 0.726562L69.6242 13.407L64.4859 48.0645L41.1413 69.3783Z" fill="#BCBCBC"/>
</g>
</g>
</g>
<defs>
<filter id="filter0_d_10_220" x="0.234375" y="3.05652" width="77.9089" height="78.167" filterUnits="userSpaceOnUse" color-interpolation-filters="sRGB">
<feFlood flood-opacity="0" result="BackgroundImageFix"/>
<feColorMatrix in="SourceAlpha" type="matrix" values="0 0 0 0 0 0 0 0 0 0 0 0 0 0 0 0 0 0 127 0" result="hardAlpha"/>
<feOffset dx="-2" dy="3"/>
<feGaussianBlur stdDeviation="3"/>
<feColorMatrix type="matrix" values="0 0 0 0 0 0 0 0 0 0 0 0 0 0 0 0 0 0 0.761 0"/>
<feBlend mode="normal" in2="BackgroundImageFix" result="effect1_dropShadow_10_220"/>
<feBlend mode="normal" in="SourceGraphic" in2="effect1_dropShadow_10_220" result="shape"/>
</filter>
<filter id="filter1_d_10_220" x="4.22437" y="16.4866" width="73.666" height="61.889" filterUnits="userSpaceOnUse" color-interpolation-filters="sRGB">
<feFlood flood-opacity="0" result="BackgroundImageFix"/>
<feColorMatrix in="SourceAlpha" type="matrix" values="0 0 0 0 0 0 0 0 0 0 0 0 0 0 0 0 0 0 127 0" result="hardAlpha"/>
<feOffset dy="3"/>
<feGaussianBlur stdDeviation="3"/>
<feColorMatrix type="matrix" values="0 0 0 0 0 0 0 0 0 0 0 0 0 0 0 0 0 0 0.161 0"/>
<feBlend mode="normal" in2="BackgroundImageFix" result="effect1_dropShadow_10_220"/>
<feBlend mode="normal" in="SourceGraphic" in2="effect1_dropShadow_10_220" result="shape"/>
</filter>
<linearGradient id="paint0_linear_10_220" x1="41.1889" y1="6.05652" x2="41.1889" y2="72.2235" gradientUnits="userSpaceOnUse">
<stop stop-color="#C5D1D8"/>
<stop offset="0.205" stop-color="#E9E9E9"/>
<stop offset="1" stop-color="#868A8D"/>
</linearGradient>
<linearGradient id="paint1_linear_10_220" x1="41.0574" y1="19.4866" x2="41.0574" y2="69.3756" gradientUnits="userSpaceOnUse">
<stop stop-color="#C4C6C6"/>
<stop offset="0.54" stop-color="#E9E9E9"/>
<stop offset="1" stop-color="#565656"/>
</linearGradient>
</defs>
</svg>
