<svg width="360" height="308" viewBox="0 0 360 308" fill="none" xmlns="http://www.w3.org/2000/svg">
<g filter="url(#filter0_d_139_12)">
<path d="M118.237 40.4092L55.9848 148.245L118.237 256.081H242.742L304.995 148.245L242.742 40.4092H118.237ZM117.66 39.4092H243.32L306.15 148.245L243.32 257.081H117.66L54.8301 148.245L117.66 39.4092Z" fill="#C00631"/>
</g>
<g filter="url(#filter1_d_139_12)">
<path d="M243.031 256.581H117.949L55.4075 148.245L117.949 39.9092H243.031L305.572 148.245L243.031 256.581Z" fill="white"/>
<path d="M118.237 40.4092L55.9848 148.245L118.237 256.081H242.742L304.995 148.245L242.742 40.4092H118.237ZM117.66 39.4092H243.32L306.15 148.245L243.32 257.081H117.66L54.8301 148.245L117.66 39.4092Z" fill="white"/>
</g>
<path d="M118.235 40.4072L55.9826 148.243L118.235 256.079H242.74L304.993 148.243L242.74 40.4072H118.235ZM117.658 39.4072H243.318L306.148 148.243L243.318 257.079H117.658L54.8279 148.243L117.658 39.4072Z" fill="#C00631"/>
<g style="mix-blend-mode:multiply" filter="url(#filter2_d_139_12)">
<g opacity="0.5">
<path d="M243.031 257.521H117.949L55.4075 149.186L117.949 40.8496H243.031L305.572 149.186L243.031 257.521Z" fill="#131313"/>
<path d="M118.237 41.3496L55.9848 149.186L118.237 257.021H242.742L304.995 149.186L242.742 41.3496H118.237ZM117.66 40.3496H243.32L306.15 149.186L243.32 258.021H117.66L54.8301 149.186L117.66 40.3496Z" fill="#C00631"/>
</g>
</g>
<g style="mix-blend-mode:multiply" opacity="0.5">
<path d="M243.029 257.527H117.947L55.4053 149.191L117.947 40.8555H243.029L305.57 149.191L243.029 257.527Z" fill="#131313"/>
<path d="M118.235 41.3555L55.9826 149.191L118.235 257.027H242.74L304.993 149.191L242.74 41.3555H118.235ZM117.658 40.3555H243.318L306.148 149.191L243.318 258.027H117.658L54.8279 149.191L117.658 40.3555Z" fill="#131313"/>
</g>
<g style="mix-blend-mode:multiply" filter="url(#filter3_d_139_12)">
<g opacity="1">
<path d="M243.031 257.521H117.949L55.4075 149.186L117.949 40.8496H243.031L305.572 149.186L243.031 257.521Z" fill="#131313"/>
<path d="M118.237 41.3496L55.9848 149.186L118.237 257.021H242.742L304.995 149.186L242.742 41.3496H118.237ZM117.66 40.3496H243.32L306.15 149.186L243.32 258.021H117.66L54.8301 149.186L117.66 40.3496Z" fill="white"/>
</g>
</g>
<g style="mix-blend-mode:multiply" opacity="0.5">
<path d="M118.235 41.3555L55.9826 149.191L118.235 257.027H242.74L304.993 149.191L242.74 41.3555H118.235ZM117.658 40.3555H243.318L306.148 149.191L243.318 258.027H117.658L54.8279 149.191L117.658 40.3555Z" fill="#C00631"/>
</g>
<g filter="url(#filter4_d_139_12)">
<path d="M254.58 277.382L328.671 149.191L254.58 21H106.396L32.3049 149.191L106.396 277.382H254.58ZM117.081 39.3547H243.895L307.302 149.191L307.014 149.691L243.895 259.027H117.081L53.6732 149.191L117.081 39.3547ZM255.157 278.382L105.819 278.382L31.1499 149.191L105.819 20H255.157L329.826 149.191L255.157 278.382ZM117.658 40.3547L54.8279 149.191L117.658 258.027H243.318L306.147 149.191L243.318 40.3547H117.658Z" fill="#B4B4B4"/>
</g>
<g filter="url(#filter5_d_139_12)">
<path d="M254.868 277.881H106.107L31.7273 149.191L106.107 20.5H254.868L329.248 149.191L254.868 277.881ZM117.369 39.8546L117.225 40.1046L54.3947 148.941L54.2504 149.191L54.3947 149.44L117.225 258.277L117.369 258.527H117.658H243.318H243.606L243.751 258.277L306.58 149.441L306.725 149.191L306.58 148.941L243.751 40.1047L243.606 39.8546H243.318H117.658H117.369Z" fill="black"/>
<path d="M254.58 277.382L328.671 149.191L254.58 21H106.396L32.3049 149.191L106.396 277.382H254.58ZM117.081 39.3547H243.895L307.302 149.191L307.014 149.691L243.895 259.027H117.081L53.6732 149.191L117.081 39.3547ZM255.157 278.382L105.819 278.382L31.1499 149.191L105.819 20H255.157L329.826 149.191L255.157 278.382ZM117.658 40.3547L54.8279 149.191L117.658 258.027H243.318L306.147 149.191L243.318 40.3547H117.658Z" fill="black"/>
</g>
<path d="M254.58 277.382L328.671 149.192L254.58 21.001H106.396L32.3049 149.192L106.396 277.382H254.58ZM117.081 39.3556H243.895L307.302 149.192L307.014 149.692L243.895 259.028H117.081L53.6732 149.192L117.081 39.3556ZM255.157 278.383L105.819 278.382L31.1499 149.192L105.819 20.001H255.157L329.826 149.192L255.157 278.383ZM117.658 40.3556L54.8279 149.192L117.658 258.028H243.318L306.147 149.192L243.318 40.3556H117.658Z" fill="#B4B4B4"/>
<g filter="url(#filter6_d_139_12)">
<path d="M310.407 195.311L337.756 146.176H352.234L324.886 195.311H310.407ZM337.039 146.176L272.007 32.3691H286.393L351.884 146.176H337.039Z" fill="#C5D1D8" stroke="#2A2626"/>
</g>
<g filter="url(#filter7_d_139_12)">
<path d="M48.827 195.309L21.4781 146.174H7.00005L34.348 195.309H48.827ZM22.1941 146.174L87.2271 32.3672H72.8411L7.35005 146.174H22.1941Z" fill="#C5D1D8" stroke="#2A2626"/>
</g>
<g filter="url(#filter8_d_139_12)">
<path d="M60.429 245.949H74.2129L101.205 285.867H259.73L285.016 245.949H298.799L263.076 297.811H95.7469L60.429 245.949Z" fill="#C5D1D8" stroke="#2A2626"/>
</g>
<defs>
<filter id="filter0_d_139_12" x="48.8301" y="36.4092" width="263.32" height="229.672" filterUnits="userSpaceOnUse" color-interpolation-filters="sRGB">
<feFlood flood-opacity="0" result="BackgroundImageFix"/>
<feColorMatrix in="SourceAlpha" type="matrix" values="0 0 0 0 0 0 0 0 0 0 0 0 0 0 0 0 0 0 127 0" result="hardAlpha"/>
<feOffset dy="3"/>
<feGaussianBlur stdDeviation="3"/>
<feColorMatrix type="matrix" values="0 0 0 0 0 0 0 0 0 0 0 0 0 0 0 0 0 0 0.941 0"/>
<feBlend mode="normal" in2="BackgroundImageFix" result="effect1_dropShadow_139_12"/>
<feBlend mode="normal" in="SourceGraphic" in2="effect1_dropShadow_139_12" result="shape"/>
</filter>
<filter id="filter1_d_139_12" x="34.8301" y="19.4092" width="291.32" height="257.672" filterUnits="userSpaceOnUse" color-interpolation-filters="sRGB">
<feFlood flood-opacity="0" result="BackgroundImageFix"/>
<feColorMatrix in="SourceAlpha" type="matrix" values="0 0 0 0 0 0 0 0 0 0 0 0 0 0 0 0 0 0 127 0" result="hardAlpha"/>
<feOffset/>
<feGaussianBlur stdDeviation="10"/>
<feColorMatrix type="matrix" values="0 0 0 0 0 0 0 0 0 0 0 0 0 0 0 0 0 0 0.25 0"/>
<feBlend mode="normal" in2="BackgroundImageFix" result="effect1_dropShadow_139_12"/>
<feBlend mode="normal" in="SourceGraphic" in2="effect1_dropShadow_139_12" result="shape"/>
</filter>
<filter id="filter2_d_139_12" x="48.8301" y="37.3496" width="263.32" height="229.672" filterUnits="userSpaceOnUse" color-interpolation-filters="sRGB">
<feFlood flood-opacity="0" result="BackgroundImageFix"/>
<feColorMatrix in="SourceAlpha" type="matrix" values="0 0 0 0 0 0 0 0 0 0 0 0 0 0 0 0 0 0 127 0" result="hardAlpha"/>
<feOffset dy="3"/>
<feGaussianBlur stdDeviation="3"/>
<feColorMatrix type="matrix" values="0 0 0 0 0 0 0 0 0 0 0 0 0 0 0 0 0 0 0.941 0"/>
<feBlend mode="normal" in2="BackgroundImageFix" result="effect1_dropShadow_139_12"/>
<feBlend mode="normal" in="SourceGraphic" in2="effect1_dropShadow_139_12" result="shape"/>
</filter>
<filter id="filter3_d_139_12" x="34.8301" y="20.3496" width="291.32" height="257.672" filterUnits="userSpaceOnUse" color-interpolation-filters="sRGB">
<feFlood flood-opacity="0" result="BackgroundImageFix"/>
<feColorMatrix in="SourceAlpha" type="matrix" values="0 0 0 0 0 0 0 0 0 0 0 0 0 0 0 0 0 0 127 0" result="hardAlpha"/>
<feOffset/>
<feGaussianBlur stdDeviation="10"/>
<feColorMatrix type="matrix" values="0 0 0 0 0 0 0 0 0 0 0 0 0 0 0 0 0 0 0.25 0"/>
<feBlend mode="normal" in2="BackgroundImageFix" result="effect1_dropShadow_139_12"/>
<feBlend mode="normal" in="SourceGraphic" in2="effect1_dropShadow_139_12" result="shape"/>
</filter>
<filter id="filter4_d_139_12" x="25.1499" y="17" width="310.676" height="270.382" filterUnits="userSpaceOnUse" color-interpolation-filters="sRGB">
<feFlood flood-opacity="0" result="BackgroundImageFix"/>
<feColorMatrix in="SourceAlpha" type="matrix" values="0 0 0 0 0 0 0 0 0 0 0 0 0 0 0 0 0 0 127 0" result="hardAlpha"/>
<feOffset dy="3"/>
<feGaussianBlur stdDeviation="3"/>
<feColorMatrix type="matrix" values="0 0 0 0 0 0 0 0 0 0 0 0 0 0 0 0 0 0 0.941 0"/>
<feBlend mode="normal" in2="BackgroundImageFix" result="effect1_dropShadow_139_12"/>
<feBlend mode="normal" in="SourceGraphic" in2="effect1_dropShadow_139_12" result="shape"/>
</filter>
<filter id="filter5_d_139_12" x="11.1499" y="0" width="338.676" height="298.382" filterUnits="userSpaceOnUse" color-interpolation-filters="sRGB">
<feFlood flood-opacity="0" result="BackgroundImageFix"/>
<feColorMatrix in="SourceAlpha" type="matrix" values="0 0 0 0 0 0 0 0 0 0 0 0 0 0 0 0 0 0 127 0" result="hardAlpha"/>
<feOffset/>
<feGaussianBlur stdDeviation="10"/>
<feColorMatrix type="matrix" values="0 0 0 0 0 0 0 0 0 0 0 0 0 0 0 0 0 0 0.25 0"/>
<feBlend mode="normal" in2="BackgroundImageFix" result="effect1_dropShadow_139_12"/>
<feBlend mode="normal" in="SourceGraphic" in2="effect1_dropShadow_139_12" result="shape"/>
</filter>
<filter id="filter6_d_139_12" x="265.146" y="28.8691" width="93.9392" height="175.942" filterUnits="userSpaceOnUse" color-interpolation-filters="sRGB">
<feFlood flood-opacity="0" result="BackgroundImageFix"/>
<feColorMatrix in="SourceAlpha" type="matrix" values="0 0 0 0 0 0 0 0 0 0 0 0 0 0 0 0 0 0 127 0" result="hardAlpha"/>
<feOffset dy="3"/>
<feGaussianBlur stdDeviation="3"/>
<feColorMatrix type="matrix" values="0 0 0 0 0 0 0 0 0 0 0 0 0 0 0 0 0 0 0.902 0"/>
<feBlend mode="normal" in2="BackgroundImageFix" result="effect1_dropShadow_139_12"/>
<feBlend mode="normal" in="SourceGraphic" in2="effect1_dropShadow_139_12" result="shape"/>
</filter>
<filter id="filter7_d_139_12" x="0.149414" y="28.8672" width="93.9392" height="175.942" filterUnits="userSpaceOnUse" color-interpolation-filters="sRGB">
<feFlood flood-opacity="0" result="BackgroundImageFix"/>
<feColorMatrix in="SourceAlpha" type="matrix" values="0 0 0 0 0 0 0 0 0 0 0 0 0 0 0 0 0 0 127 0" result="hardAlpha"/>
<feOffset dy="3"/>
<feGaussianBlur stdDeviation="3"/>
<feColorMatrix type="matrix" values="0 0 0 0 0 0 0 0 0 0 0 0 0 0 0 0 0 0 0.902 0"/>
<feBlend mode="normal" in2="BackgroundImageFix" result="effect1_dropShadow_139_12"/>
<feBlend mode="normal" in="SourceGraphic" in2="effect1_dropShadow_139_12" result="shape"/>
</filter>
<filter id="filter8_d_139_12" x="53.4834" y="242.449" width="252.267" height="64.8613" filterUnits="userSpaceOnUse" color-interpolation-filters="sRGB">
<feFlood flood-opacity="0" result="BackgroundImageFix"/>
<feColorMatrix in="SourceAlpha" type="matrix" values="0 0 0 0 0 0 0 0 0 0 0 0 0 0 0 0 0 0 127 0" result="hardAlpha"/>
<feOffset dy="3"/>
<feGaussianBlur stdDeviation="3"/>
<feColorMatrix type="matrix" values="0 0 0 0 0 0 0 0 0 0 0 0 0 0 0 0 0 0 0.902 0"/>
<feBlend mode="normal" in2="BackgroundImageFix" result="effect1_dropShadow_139_12"/>
<feBlend mode="normal" in="SourceGraphic" in2="effect1_dropShadow_139_12" result="shape"/>
</filter>
</defs>
</svg>
