<svg width="339" height="299" viewBox="0 0 339 299" fill="none" xmlns="http://www.w3.org/2000/svg">
<g filter="url(#filter0_d_1_5)">
<path d="M107.088 40.4092L44.8349 148.245L107.088 256.081H231.593L293.845 148.245L231.593 40.4092H107.088ZM106.51 39.4092H232.17L295 148.245L232.17 257.081H106.51L43.6802 148.245L106.51 39.4092Z" fill="#C00631"/>
</g>
<g filter="url(#filter1_d_1_5)">
<path d="M231.881 256.581H106.799L44.2576 148.245L106.799 39.9092H231.881L294.423 148.245L231.881 256.581Z" fill="#131313"/>
<path d="M107.088 40.4092L44.8349 148.245L107.088 256.081H231.593L293.845 148.245L231.593 40.4092H107.088ZM106.51 39.4092H232.17L295 148.245L232.17 257.081H106.51L43.6802 148.245L106.51 39.4092Z" fill="white"/>
</g>
<path d="M107.085 40.4072L44.8327 148.243L107.085 256.079H231.59L293.843 148.243L231.59 40.4072H107.085ZM106.508 39.4072H232.168L294.998 148.243L232.168 257.079H106.508L43.678 148.243L106.508 39.4072Z" fill="#C00631"/>
<g style="mix-blend-mode:multiply" filter="url(#filter2_d_1_5)">
<g opacity="0.5">
<path d="M231.881 257.521H106.799L44.2576 149.186L106.799 40.8496H231.881L294.423 149.186L231.881 257.521Z" fill="#131313"/>
<path d="M107.088 41.3496L44.8349 149.186L107.088 257.021H231.593L293.845 149.186L231.593 41.3496H107.088ZM106.51 40.3496H232.17L295 149.186L232.17 258.021H106.51L43.6802 149.186L106.51 40.3496Z" fill="#C00631"/>
</g>
</g>
<g style="mix-blend-mode:multiply" opacity="0.5">
<path d="M231.879 257.527H106.797L44.2554 149.191L106.797 40.8555H231.879L294.42 149.191L231.879 257.527Z" fill="#131313"/>
<path d="M107.085 41.3555L44.8327 149.191L107.085 257.027H231.59L293.843 149.191L231.59 41.3555H107.085ZM106.508 40.3555H232.168L294.998 149.191L232.168 258.027H106.508L43.678 149.191L106.508 40.3555Z" fill="#131313"/>
</g>
<g style="mix-blend-mode:multiply" filter="url(#filter3_d_1_5)">
<g opacity="0.5">
<path d="M231.881 257.521H106.799L44.2576 149.186L106.799 40.8496H231.881L294.423 149.186L231.881 257.521Z" fill="#131313"/>
<path d="M107.088 41.3496L44.8349 149.186L107.088 257.021H231.593L293.845 149.186L231.593 41.3496H107.088ZM106.51 40.3496H232.17L295 149.186L232.17 258.021H106.51L43.6802 149.186L106.51 40.3496Z" fill="white"/>
</g>
</g>
<g style="mix-blend-mode:multiply" opacity="0.5">
<path d="M107.085 41.3555L44.8327 149.191L107.085 257.027H231.59L293.843 149.191L231.59 41.3555H107.085ZM106.508 40.3555H232.168L294.998 149.191L232.168 258.027H106.508L43.678 149.191L106.508 40.3555Z" fill="#C00631"/>
</g>
<g filter="url(#filter4_d_1_5)">
<path d="M243.43 277.382L317.521 149.191L243.43 21H95.2459L21.155 149.191L95.2459 277.382H243.43ZM105.931 39.3547H232.745L296.152 149.191L295.864 149.691L232.745 259.027H105.931L42.5233 149.191L105.931 39.3547ZM244.007 278.382L94.6689 278.382L20 149.191L94.6689 20H244.007L318.676 149.191L244.007 278.382ZM106.508 40.3547L43.678 149.191L106.508 258.027H232.168L294.998 149.191L232.168 40.3547H106.508Z" fill="#B4B4B4"/>
</g>
<g filter="url(#filter5_d_1_5)">
<path d="M243.718 277.881H94.9573L20.5774 149.191L94.9573 20.5H243.718L318.098 149.191L243.718 277.881ZM106.219 39.8546L106.075 40.1046L43.2448 148.941L43.1005 149.191L43.2448 149.44L106.075 258.277L106.219 258.527H106.508H232.168H232.456L232.601 258.277L295.431 149.441L295.575 149.191L295.431 148.941L232.601 40.1047L232.456 39.8546H232.168H106.508H106.219Z" fill="black"/>
<path d="M243.43 277.382L317.521 149.191L243.43 21H95.2459L21.155 149.191L95.2459 277.382H243.43ZM105.931 39.3547H232.745L296.152 149.191L295.864 149.691L232.745 259.027H105.931L42.5233 149.191L105.931 39.3547ZM244.007 278.382L94.6689 278.382L20 149.191L94.6689 20H244.007L318.676 149.191L244.007 278.382ZM106.508 40.3547L43.678 149.191L106.508 258.027H232.168L294.998 149.191L232.168 40.3547H106.508Z" fill="black"/>
</g>
<path d="M243.43 277.382L317.521 149.192L243.43 21.001H95.2459L21.155 149.192L95.2459 277.382H243.43ZM105.931 39.3556H232.745L296.152 149.192L295.864 149.692L232.745 259.028H105.931L42.5233 149.192L105.931 39.3556ZM244.007 278.383L94.6689 278.382L20 149.192L94.6689 20.001H244.007L318.676 149.192L244.007 278.383ZM106.508 40.3556L43.678 149.192L106.508 258.028H232.168L294.998 149.192L232.168 40.3556H106.508Z" fill="#B4B4B4"/>
<defs>
<filter id="filter0_d_1_5" x="37.6802" y="36.4092" width="263.32" height="229.672" filterUnits="userSpaceOnUse" color-interpolation-filters="sRGB">
<feFlood flood-opacity="0" result="BackgroundImageFix"/>
<feColorMatrix in="SourceAlpha" type="matrix" values="0 0 0 0 0 0 0 0 0 0 0 0 0 0 0 0 0 0 127 0" result="hardAlpha"/>
<feOffset dy="3"/>
<feGaussianBlur stdDeviation="3"/>
<feColorMatrix type="matrix" values="0 0 0 0 0 0 0 0 0 0 0 0 0 0 0 0 0 0 0.941 0"/>
<feBlend mode="normal" in2="BackgroundImageFix" result="effect1_dropShadow_1_5"/>
<feBlend mode="normal" in="SourceGraphic" in2="effect1_dropShadow_1_5" result="shape"/>
</filter>
<filter id="filter1_d_1_5" x="23.6802" y="19.4092" width="291.32" height="257.672" filterUnits="userSpaceOnUse" color-interpolation-filters="sRGB">
<feFlood flood-opacity="0" result="BackgroundImageFix"/>
<feColorMatrix in="SourceAlpha" type="matrix" values="0 0 0 0 0 0 0 0 0 0 0 0 0 0 0 0 0 0 127 0" result="hardAlpha"/>
<feOffset/>
<feGaussianBlur stdDeviation="10"/>
<feColorMatrix type="matrix" values="0 0 0 0 0 0 0 0 0 0 0 0 0 0 0 0 0 0 0.25 0"/>
<feBlend mode="normal" in2="BackgroundImageFix" result="effect1_dropShadow_1_5"/>
<feBlend mode="normal" in="SourceGraphic" in2="effect1_dropShadow_1_5" result="shape"/>
</filter>
<filter id="filter2_d_1_5" x="37.6802" y="37.3496" width="263.32" height="229.672" filterUnits="userSpaceOnUse" color-interpolation-filters="sRGB">
<feFlood flood-opacity="0" result="BackgroundImageFix"/>
<feColorMatrix in="SourceAlpha" type="matrix" values="0 0 0 0 0 0 0 0 0 0 0 0 0 0 0 0 0 0 127 0" result="hardAlpha"/>
<feOffset dy="3"/>
<feGaussianBlur stdDeviation="3"/>
<feColorMatrix type="matrix" values="0 0 0 0 0 0 0 0 0 0 0 0 0 0 0 0 0 0 0.941 0"/>
<feBlend mode="normal" in2="BackgroundImageFix" result="effect1_dropShadow_1_5"/>
<feBlend mode="normal" in="SourceGraphic" in2="effect1_dropShadow_1_5" result="shape"/>
</filter>
<filter id="filter3_d_1_5" x="23.6802" y="20.3496" width="291.32" height="257.672" filterUnits="userSpaceOnUse" color-interpolation-filters="sRGB">
<feFlood flood-opacity="0" result="BackgroundImageFix"/>
<feColorMatrix in="SourceAlpha" type="matrix" values="0 0 0 0 0 0 0 0 0 0 0 0 0 0 0 0 0 0 127 0" result="hardAlpha"/>
<feOffset/>
<feGaussianBlur stdDeviation="10"/>
<feColorMatrix type="matrix" values="0 0 0 0 0 0 0 0 0 0 0 0 0 0 0 0 0 0 0.25 0"/>
<feBlend mode="normal" in2="BackgroundImageFix" result="effect1_dropShadow_1_5"/>
<feBlend mode="normal" in="SourceGraphic" in2="effect1_dropShadow_1_5" result="shape"/>
</filter>
<filter id="filter4_d_1_5" x="14" y="17" width="310.676" height="270.382" filterUnits="userSpaceOnUse" color-interpolation-filters="sRGB">
<feFlood flood-opacity="0" result="BackgroundImageFix"/>
<feColorMatrix in="SourceAlpha" type="matrix" values="0 0 0 0 0 0 0 0 0 0 0 0 0 0 0 0 0 0 127 0" result="hardAlpha"/>
<feOffset dy="3"/>
<feGaussianBlur stdDeviation="3"/>
<feColorMatrix type="matrix" values="0 0 0 0 0 0 0 0 0 0 0 0 0 0 0 0 0 0 0.941 0"/>
<feBlend mode="normal" in2="BackgroundImageFix" result="effect1_dropShadow_1_5"/>
<feBlend mode="normal" in="SourceGraphic" in2="effect1_dropShadow_1_5" result="shape"/>
</filter>
<filter id="filter5_d_1_5" x="0" y="0" width="338.676" height="298.382" filterUnits="userSpaceOnUse" color-interpolation-filters="sRGB">
<feFlood flood-opacity="0" result="BackgroundImageFix"/>
<feColorMatrix in="SourceAlpha" type="matrix" values="0 0 0 0 0 0 0 0 0 0 0 0 0 0 0 0 0 0 127 0" result="hardAlpha"/>
<feOffset/>
<feGaussianBlur stdDeviation="10"/>
<feColorMatrix type="matrix" values="0 0 0 0 0 0 0 0 0 0 0 0 0 0 0 0 0 0 0.25 0"/>
<feBlend mode="normal" in2="BackgroundImageFix" result="effect1_dropShadow_1_5"/>
<feBlend mode="normal" in="SourceGraphic" in2="effect1_dropShadow_1_5" result="shape"/>
</filter>
</defs>
</svg>
