<svg width="63" height="63" viewBox="0 0 63 63" fill="none" xmlns="http://www.w3.org/2000/svg">
<g id="Group 37425">
<g id="Group 18547">
<g id="Group 4686">
<path id="Ellipse 156" d="M32 58C48.0163 58 61 45.0163 61 29C61 12.9837 48.0163 0 32 0C15.9837 0 3 12.9837 3 29C3 45.0163 15.9837 58 32 58Z" fill="url(#paint0_radial_10_186)"/>
<g id="Component 45 &#226;&#128;&#147; 1085">
<g id="Group" filter="url(#filter0_d_10_186)">
<g id="Ellipse 2">
<path id="Vector" d="M32.2727 53.9324C45.9866 53.9324 57.1039 42.8151 57.1039 29.1012C57.1039 15.3873 45.9866 4.27002 32.2727 4.27002C18.5588 4.27002 7.44153 15.3873 7.44153 29.1012C7.44153 42.8151 18.5588 53.9324 32.2727 53.9324Z" fill="url(#paint1_linear_10_186)"/>
<path id="Vector_2" d="M32.2731 53.5309C45.765 53.5309 56.7024 42.5935 56.7024 29.1016C56.7024 15.6097 45.765 4.67236 32.2731 4.67236C18.7812 4.67236 7.84387 15.6097 7.84387 29.1016C7.84387 42.5935 18.7812 53.5309 32.2731 53.5309Z" stroke="#273133" stroke-width="0.5"/>
</g>
</g>
</g>
</g>
</g>
<g id="share">
<path id="share_2" d="M37.1464 25.2515C37.9071 25.2507 38.6495 25.0184 39.275 24.5855C39.9004 24.1526 40.3794 23.5396 40.6481 22.828C40.9169 22.1164 40.9627 21.3399 40.7796 20.6016C40.5964 19.8633 40.1929 19.1982 39.6227 18.6947C39.0525 18.1913 38.3426 17.8732 37.5873 17.7829C36.8321 17.6925 36.0672 17.8342 35.3943 18.1889C34.7214 18.5437 34.1725 19.0949 33.8204 19.7691C33.4682 20.4434 33.3296 21.2088 33.423 21.9637L24.7413 26.3046C24.2114 25.7937 23.543 25.45 22.8192 25.3163C22.0955 25.1826 21.3484 25.2648 20.671 25.5527C19.9936 25.8405 19.4158 26.3213 19.0097 26.9352C18.6036 27.549 18.3871 28.2687 18.3871 29.0047C18.3871 29.7408 18.6036 30.4605 19.0097 31.0743C19.4158 31.6882 19.9936 32.1689 20.671 32.4568C21.3484 32.7446 22.0955 32.8268 22.8192 32.6931C23.543 32.5594 24.2114 32.2158 24.7413 31.7049L33.423 36.0457C33.3289 36.8015 33.4672 37.5679 33.8194 38.2432C34.1715 38.9184 34.7209 39.4705 35.3944 39.8259C36.0679 40.1814 36.8337 40.3234 37.5898 40.2331C38.346 40.1428 39.0568 39.8244 39.6277 39.3204C40.1986 38.8163 40.6025 38.1504 40.7857 37.4112C40.9689 36.672 40.9228 35.8946 40.6535 35.1822C40.3841 34.4699 39.9043 33.8564 39.2779 33.4234C38.6514 32.9903 37.908 32.7582 37.1464 32.758C36.1746 32.7567 35.2405 33.1338 34.5419 33.8094L25.8603 29.4686C25.898 29.161 25.898 28.8501 25.8603 28.5425L34.5419 24.2017C35.2407 24.8767 36.1748 25.2532 37.1464 25.2515Z" fill="white"/>
</g>
</g>
<defs>
<filter id="filter0_d_10_186" x="0.441528" y="1.27002" width="61.6624" height="61.6624" filterUnits="userSpaceOnUse" color-interpolation-filters="sRGB">
<feFlood flood-opacity="0" result="BackgroundImageFix"/>
<feColorMatrix in="SourceAlpha" type="matrix" values="0 0 0 0 0 0 0 0 0 0 0 0 0 0 0 0 0 0 127 0" result="hardAlpha"/>
<feOffset dx="-1" dy="3"/>
<feGaussianBlur stdDeviation="3"/>
<feColorMatrix type="matrix" values="0 0 0 0 0 0 0 0 0 0 0 0 0 0 0 0 0 0 0.671 0"/>
<feBlend mode="normal" in2="BackgroundImageFix" result="effect1_dropShadow_10_186"/>
<feBlend mode="normal" in="SourceGraphic" in2="effect1_dropShadow_10_186" result="shape"/>
</filter>
<radialGradient id="paint0_radial_10_186" cx="0" cy="0" r="1" gradientUnits="userSpaceOnUse" gradientTransform="translate(32 29) scale(29)">
<stop stop-color="#0C1113"/>
<stop offset="0.502" stop-color="#42555A"/>
<stop offset="1" stop-color="#050809"/>
</radialGradient>
<linearGradient id="paint1_linear_10_186" x1="32.2727" y1="4.27002" x2="32.2727" y2="53.9324" gradientUnits="userSpaceOnUse">
<stop stop-color="#0D1314"/>
<stop offset="1" stop-color="#203237"/>
</linearGradient>
</defs>
</svg>
